<svg id="Layer_1" enable-background="new 0 0 512 512" height="512" viewBox="0 0 512 512" width="512" xmlns="http://www.w3.org/2000/svg"><g><path d="m512 256c0-23.701-10.691-46.007-28.594-60.933 8.04-21.872 6.147-46.535-5.703-67.068-11.853-20.525-32.264-34.497-55.228-38.473-3.975-22.963-17.947-43.375-38.475-55.228-20.526-11.852-45.19-13.747-67.069-5.707-14.921-17.899-37.228-28.591-60.931-28.591s-46.009 10.691-60.932 28.591c-21.875-8.041-46.543-6.145-67.069 5.707-20.527 11.854-34.5 32.265-38.475 55.229-22.962 3.977-43.376 17.95-55.229 38.476-11.849 20.53-13.741 45.193-5.701 67.064-17.903 14.926-28.594 37.232-28.594 60.933s10.691 46.007 28.594 60.933c-8.04 21.872-6.147 46.535 5.701 67.064 11.854 20.526 32.268 34.499 55.229 38.476 3.975 22.964 17.947 43.375 38.475 55.229 20.526 11.852 45.194 13.747 67.069 5.707 14.923 17.9 37.229 28.591 60.932 28.591s46.01-10.692 60.932-28.591c21.879 8.04 46.543 6.145 67.069-5.707 20.527-11.854 34.5-32.265 38.475-55.228 22.964-3.976 43.375-17.948 55.228-38.473 11.851-20.533 13.743-45.197 5.703-67.068 17.902-14.926 28.593-37.232 28.593-60.933z" fill="#163230"/><path d="m256 512c23.703 0 46.01-10.692 60.932-28.591 21.879 8.04 46.543 6.145 67.069-5.707 20.527-11.854 34.5-32.265 38.475-55.228 22.964-3.976 43.375-17.948 55.228-38.473 11.851-20.533 13.743-45.197 5.703-67.068 17.902-14.926 28.593-37.232 28.593-60.933s-10.691-46.007-28.594-60.933c8.04-21.872 6.147-46.535-5.703-67.068-11.853-20.525-32.264-34.497-55.228-38.473-3.975-22.963-17.947-43.375-38.475-55.228-20.526-11.852-45.19-13.747-67.069-5.707-14.921-17.899-37.228-28.591-60.931-28.591z" fill="#010"/><path d="m432.733 512h-353.466c-8.284 0-15-6.716-15-15 0-79.263 64.11-143.533 143.517-143.533h96.432c79.255 0 143.518 64.122 143.518 143.517v.016c-.001 8.284-6.716 15-15.001 15z" fill="#ffa0a5"/><path d="m447.733 497v-.016c0-79.395-64.262-143.517-143.518-143.517h-48.215v158.533h176.733c8.285 0 15-6.716 15-15z" fill="#ff647c"/><path d="m320.267 383.467h-128.534c-8.284 0-15-6.716-15-15v-64.267c0-8.284 6.716-15 15-15h128.533c8.284 0 15 6.716 15 15v64.267c.001 8.284-6.715 15-14.999 15z" fill="#ff647c"/><path d="m335.267 368.467v-64.267c0-8.284-6.716-15-15-15h-64.267v94.267h64.267c8.284 0 15-6.716 15-15z" fill="#ff0052"/><path d="m425.216 419.722-8.549 4.275-25.425-12.712c-4.223-2.111-9.193-2.111-13.416 0l-25.426 12.711-25.426-12.712c-4.223-2.111-9.193-2.111-13.416 0l-25.425 12.712-25.426-12.712c-4.224-2.111-9.194-2.111-13.416 0l-25.425 12.712-25.425-12.712c-4.223-2.111-9.193-2.111-13.416 0l-25.425 12.712-25.425-12.712c-4.223-2.111-9.193-2.111-13.416 0l-25.425 12.712-8.545-4.272c-5.363 8.388-9.869 17.376-13.415 26.834l15.252 7.626c4.225 2.112 9.195 2.111 13.416 0l25.425-12.712 25.425 12.712c4.223 2.111 9.193 2.111 13.416 0l25.425-12.712 25.425 12.712c4.223 2.111 9.193 2.111 13.416 0l25.426-12.713 25.426 12.712c4.225 2.112 9.195 2.111 13.416 0l25.425-12.712 25.426 12.712c4.225 2.112 9.195 2.111 13.416 0l25.425-12.712 25.425 12.712c4.223 2.111 9.193 2.111 13.416 0l15.258-7.629c-3.546-9.46-8.054-18.446-13.417-26.832z" fill="#ff647c"/><path d="m294.842 454.183 25.425-12.712 25.426 12.712c4.225 2.112 9.195 2.111 13.416 0l25.425-12.712 25.425 12.712c4.223 2.111 9.193 2.111 13.416 0l15.258-7.629c-3.546-9.46-8.054-18.446-13.417-26.833l-8.549 4.275-25.425-12.712c-4.223-2.111-9.193-2.111-13.416 0l-25.426 12.712-25.426-12.712c-4.223-2.111-9.193-2.111-13.416 0l-25.425 12.712-25.426-12.712c-2.112-1.056-4.41-1.583-6.708-1.583v31.77l25.426 12.712c4.225 2.112 9.196 2.111 13.417 0z" fill="#ff0052"/><path d="m288.134 319.2h-64.268c-61.426 0-111.399-49.974-111.399-111.4v-48.2c0-8.284 6.716-15 15-15h32.133c9.447 0 17.134-7.686 17.134-17.133 0-8.284 6.716-15 15-15h32.133c9.447 0 17.134-7.686 17.134-17.133 0-8.284 6.716-15 15-15 8.276 0 14.987 6.703 15 14.976v.024c0 9.455 7.679 17.133 17.117 17.133h32.149c8.284 0 15 6.716 15 15 0 9.447 7.687 17.133 17.134 17.133h32.133c8.284 0 15 6.716 15 15v48.2c-.001 61.426-49.974 111.4-111.4 111.4z" fill="#c05c4b"/><path d="m288.134 319.2c61.426 0 111.399-49.974 111.399-111.4v-48.2c0-8.284-6.716-15-15-15h-32.133c-9.447 0-17.134-7.686-17.134-17.133 0-8.284-6.716-15-15-15h-32.149c-9.438 0-17.117-7.679-17.117-17.133v-.024c-.013-8.273-6.724-14.976-15-14.976v238.866z" fill="#8b3e2a"/><path d="m256 254.933c-12.062 0-23.86-3.952-33.224-11.127-6.575-5.039-7.821-14.455-2.782-21.03 5.04-6.576 14.455-7.82 21.03-2.782 4.156 3.185 9.475 4.939 14.976 4.939s10.819-1.754 14.976-4.939c6.576-5.04 15.99-3.794 21.03 2.782 5.039 6.576 3.793 15.991-2.782 21.03-9.364 7.175-21.162 11.127-33.224 11.127z" fill="#8b3e2a"/><path d="m289.224 243.806c6.575-5.039 7.821-14.455 2.782-21.03-5.04-6.576-14.454-7.821-21.03-2.782-4.156 3.185-9.475 4.939-14.976 4.939v30c12.062 0 23.86-3.952 33.224-11.127z" fill="#551f09"/></g></svg>